<svg width="220" height="44" viewBox="0 0 220 44" fill="none" xmlns="http://www.w3.org/2000/svg">
<g clip-path="url(#clip0_938_46413)">
<path fill-rule="evenodd" clip-rule="evenodd" d="M75.1842 35.0281C78.6871 35.0281 81.6774 33.832 84.1124 31.397C86.5473 28.9621 87.7434 25.9718 87.7862 22.4262C87.7862 18.8805 86.5473 15.933 84.1124 13.498C81.6774 11.0631 78.6871 9.82422 75.1842 9.82422C71.6813 9.82422 68.691 11.0631 66.2561 13.498C63.8211 15.933 62.625 18.8805 62.625 22.4262C62.625 25.9291 63.8211 28.9194 66.2561 31.397C68.691 33.832 71.6813 35.0281 75.1842 35.0281ZM75.1415 30.3718C72.9201 30.3718 71.0832 29.6456 69.5881 28.1504C68.093 26.6553 67.324 24.733 67.324 22.4262C67.324 20.1194 68.093 18.197 69.5881 16.7019C71.0832 15.2067 72.9201 14.4378 75.1415 14.4378C77.3201 14.4378 79.1998 15.2067 80.6949 16.7019C82.19 18.197 82.959 20.1194 82.959 22.4262C82.959 24.733 82.19 26.6553 80.6949 28.1504C79.2425 29.6456 77.3629 30.3718 75.1415 30.3718Z" fill="white"/>
<path fill-rule="evenodd" clip-rule="evenodd" d="M106.924 19.4358C105.301 17.6844 103.336 16.7873 100.986 16.7873C98.5513 16.7873 96.6717 17.599 95.3901 19.3077V17.2573H90.9474V41.4786H95.3901V32.5077C96.7144 34.1737 98.5513 35.0281 100.986 35.0281C103.336 35.0281 105.301 34.131 106.924 32.3796C108.59 30.6281 109.402 28.4494 109.402 25.8863C109.402 23.3659 108.59 21.23 106.924 19.4358ZM100.132 30.799C98.7649 30.799 97.6115 30.3291 96.7144 29.432C95.8173 28.5349 95.3901 27.3388 95.3474 25.8863C95.3474 24.4339 95.8173 23.2806 96.7144 22.3835C97.6115 21.4864 98.7649 21.0165 100.132 21.0165C101.499 21.0165 102.652 21.4437 103.549 22.3835C104.446 23.2806 104.916 24.4766 104.916 25.8863C104.916 27.3388 104.489 28.4922 103.549 29.432C102.652 30.3291 101.499 30.799 100.132 30.799Z" fill="white"/>
<path fill-rule="evenodd" clip-rule="evenodd" d="M129.394 27.7233H116.365C116.963 29.9019 118.586 30.9698 121.235 30.9698C122.943 30.9698 124.225 30.4145 125.122 29.2611L128.71 31.3543C127.002 33.832 124.481 35.0708 121.149 35.0708C118.287 35.0708 115.98 34.2164 114.271 32.465C112.563 30.7562 111.666 28.5349 111.666 25.9291C111.666 23.3659 112.52 21.1873 114.229 19.4358C115.895 17.6844 118.116 16.7873 120.807 16.7873C123.371 16.7873 125.464 17.6844 127.087 19.4358C128.753 21.1873 129.565 23.3659 129.565 25.9291C129.565 26.3133 129.508 26.7834 129.44 27.3391C129.425 27.4629 129.409 27.591 129.394 27.7233ZM116.279 24.263H125.079C124.823 23.1524 124.31 22.2553 123.541 21.6573C122.772 21.0592 121.875 20.7601 120.807 20.7601C119.611 20.7601 118.629 21.0591 117.817 21.6999C117.048 22.3407 116.536 23.1951 116.279 24.263Z" fill="white"/>
<path d="M146.951 18.7096C145.755 17.4281 144.217 16.7873 142.295 16.7873C139.903 16.7873 138.194 17.599 137.126 19.1796V17.2573H132.726V34.5582H137.169V25.2028C137.169 23.7931 137.468 22.7252 138.151 21.999C138.877 21.2727 139.774 20.8883 140.971 20.8883C142.039 20.8883 142.85 21.1873 143.448 21.8281C144.089 22.4689 144.388 23.366 144.388 24.4767V34.6009H148.831V23.964C148.831 21.7426 148.19 19.9912 146.951 18.7096Z" fill="white"/>
<path d="M164.85 10.3368H170.233L161.945 25.1174V34.5582H157.204V25.1174L148.916 10.3368H154.299L159.553 20.4183L164.85 10.3368Z" fill="white"/>
<path fill-rule="evenodd" clip-rule="evenodd" d="M182.066 17.2573V19.3077C180.742 17.599 178.862 16.7873 176.427 16.7873C174.12 16.7873 172.155 17.6417 170.489 19.4358C168.823 21.1873 168.011 23.3659 168.011 25.8863C168.011 28.4494 168.866 30.5854 170.489 32.3796C172.155 34.131 174.12 35.0281 176.427 35.0281C178.862 35.0281 180.742 34.1737 182.066 32.5077V34.5582H186.509V17.2573H182.066ZM177.239 30.799C175.872 30.799 174.718 30.3291 173.821 29.432C172.924 28.5349 172.497 27.3388 172.454 25.8863C172.454 24.4339 172.924 23.2806 173.821 22.3835C174.718 21.4864 175.872 21.0165 177.239 21.0165C178.606 21.0165 179.759 21.4437 180.656 22.3835C181.553 23.2806 182.023 24.4766 182.023 25.8863C182.023 27.3388 181.596 28.4922 180.656 29.432C179.759 30.3291 178.606 30.799 177.239 30.799Z" fill="white"/>
<path d="M195.052 17.2571V20.2474C195.437 19.1795 196.12 18.3251 197.06 17.8125C198 17.2571 199.111 16.9581 200.307 16.9581V21.9562C198.94 21.7853 197.744 22.0416 196.633 22.7678C195.565 23.494 195.052 24.6901 195.052 26.3134V34.6008H190.61V17.2571H195.052Z" fill="white"/>
<path fill-rule="evenodd" clip-rule="evenodd" d="M215.386 10.3368V19.3077C214.062 17.599 212.182 16.7873 209.79 16.7873C207.483 16.7873 205.476 17.6417 203.809 19.4359C202.186 21.1873 201.375 23.3659 201.375 25.8863C201.375 28.4494 202.186 30.5854 203.809 32.3796C205.476 34.131 207.441 35.0281 209.79 35.0281C212.225 35.0281 214.062 34.1737 215.386 32.5077V34.5582H219.829V10.3368H215.386ZM210.602 30.7989C209.235 30.7989 208.081 30.3291 207.142 29.432C206.244 28.5349 205.775 27.3387 205.775 25.8863C205.775 24.4339 206.244 23.2805 207.142 22.3834C208.081 21.4864 209.235 21.0164 210.602 21.0164C211.969 21.0164 213.122 21.4436 214.019 22.3834C214.916 23.2805 215.386 24.4766 215.386 25.8863C215.386 27.3387 214.916 28.4922 214.019 29.432C213.122 30.3291 211.969 30.7989 210.602 30.7989Z" fill="white"/>
<path d="M22.8128 39.0455V43.7872H16.1914V38.2338C16.1914 31.7406 17.3021 28.8358 19.9079 23.1969L25.5895 10.8086L30.5448 15.7212L25.5895 26.4436C23.4535 31.0572 22.8128 33.7057 22.8128 39.0455Z" fill="url(#paint0_linear_938_46413)"/>
<path d="M36.0543 3.84441L32.9785 10.5512L27.9805 5.59586C28.8348 3.71626 29.5183 1.83664 30.2873 -0.0429688H37.763L36.0543 3.84441Z" fill="url(#paint1_linear_938_46413)"/>
<path fill-rule="evenodd" clip-rule="evenodd" d="M25.6742 3.28873C22.214 -0.171466 16.6179 -0.128747 13.2004 3.33145C9.48393 7.04794 5.76743 10.7644 2.05091 14.4382C-0.68307 17.1722 -0.725788 21.6149 2.05091 24.3489C5.76743 28.0654 9.52665 31.7819 13.2432 35.4984C16.7034 38.9586 22.2995 39.0013 25.7597 35.5411L35.6703 25.6305C39.0878 22.213 39.0878 16.6596 35.6703 13.2421L25.6742 3.28873ZM15.6354 8.37221C17.6859 6.27901 21.0606 6.279 23.1538 8.32949L30.5014 15.6771C32.5519 17.7275 32.5519 21.0596 30.5014 23.1101L23.1538 30.4576C21.0606 32.5508 17.6859 32.5081 15.6354 30.4149C12.816 27.5528 9.91112 24.6907 7.04898 21.8285C5.68199 20.4615 5.68199 18.2402 7.04898 16.8732C9.91112 14.0538 12.816 11.2343 15.6354 8.37221Z" fill="white"/>
<path d="M16.063 43.8291V39.899C16.063 34.5592 15.4223 31.9106 13.2863 27.2543L2.82031 4.65625H10.0397L18.9252 24.0077C21.531 29.6465 22.6417 32.5941 22.6417 39.0446V43.8291H16.063Z" fill="url(#paint2_linear_938_46413)"/>
</g>
<defs>
<linearGradient id="paint0_linear_938_46413" x1="23.3847" y1="-0.0213678" x2="23.3847" y2="43.821" gradientUnits="userSpaceOnUse">
<stop stop-color="#FFC700"/>
<stop offset="0.5356" stop-color="#9224FF"/>
</linearGradient>
<linearGradient id="paint1_linear_938_46413" x1="32.8725" y1="-0.0219513" x2="32.8725" y2="43.8203" gradientUnits="userSpaceOnUse">
<stop stop-color="#FFC700"/>
<stop offset="0.5356" stop-color="#9224FF"/>
</linearGradient>
<linearGradient id="paint2_linear_938_46413" x1="12.7481" y1="3.83739" x2="12.7481" y2="43.0059" gradientUnits="userSpaceOnUse">
<stop stop-color="#FFC700"/>
<stop offset="1" stop-color="#9224FF"/>
</linearGradient>
<clipPath id="clip0_938_46413">
<rect width="220" height="44" fill="white"/>
</clipPath>
</defs>
</svg>
