<svg width="26" height="26" viewBox="0 0 26 26" fill="none" xmlns="http://www.w3.org/2000/svg">
<path fill-rule="evenodd" clip-rule="evenodd" d="M22.1182 3.48806C22.4356 3.80548 22.4356 4.32006 22.1182 4.63748L5.0297 21.7249C4.87153 21.8841 4.66353 21.9632 4.45553 21.9632C4.24753 21.9632 4.03953 21.8841 3.88137 21.7249C3.56395 21.4075 3.56395 20.894 3.88137 20.5766L6.01764 18.4416C4.48601 17.0407 3.18675 15.1522 2.23264 12.9284C2.14381 12.7226 2.14381 12.4908 2.23264 12.286C3.33872 9.72503 4.89656 7.60495 6.73822 6.15653C10.3055 3.33342 14.9952 3.18356 18.7071 5.75063L20.9699 3.48806C21.2873 3.17065 21.8008 3.17065 22.1182 3.48806ZM21.7171 8.71081C22.5015 9.7519 23.1905 10.9555 23.7657 12.2836C23.8556 12.4895 23.8556 12.7235 23.7657 12.9282C21.4951 18.19 17.4705 21.3306 12.9996 21.3306C11.9845 21.3306 10.9748 21.1659 9.99982 20.842C9.57407 20.7001 9.34332 20.2396 9.48523 19.8139C9.62715 19.3871 10.0854 19.1606 10.5133 19.2993C11.3226 19.5691 12.1589 19.7056 12.9996 19.7056C16.7132 19.7056 20.1073 17.0601 22.1321 12.6065C21.6381 11.5242 21.0628 10.5438 20.4193 9.68798C20.1496 9.3294 20.2211 8.81915 20.5796 8.5494C20.9371 8.27965 21.4474 8.35331 21.7171 8.71081ZM7.74464 7.4327C6.18897 8.65686 4.85322 10.44 3.86739 12.6089C4.72695 14.5073 5.8562 16.1084 7.16782 17.2908L9.48378 14.975C9.01261 14.2818 8.75907 13.4644 8.75907 12.6084C8.75907 10.2684 10.6614 8.36501 12.9992 8.36501C13.8475 8.36501 14.6772 8.62329 15.368 9.09009L17.5364 6.9219C14.4458 4.92399 10.6843 5.10625 7.74464 7.4327ZM16.5066 12.4167C16.9486 12.4958 17.2422 12.9183 17.1631 13.3603C16.8522 15.086 15.4851 16.4553 13.7604 16.7695C13.7116 16.7782 13.6618 16.7825 13.6141 16.7825C13.2296 16.7825 12.8872 16.5073 12.8157 16.1152C12.7356 15.6743 13.0281 15.2507 13.4701 15.1705C14.5317 14.9777 15.3724 14.1348 15.5631 13.0721C15.6432 12.6312 16.0657 12.3408 16.5066 12.4167ZM12.9992 9.99001C11.5573 9.99001 10.3841 11.1643 10.3841 12.6084C10.3841 13.0259 10.4824 13.4289 10.6676 13.7909L14.1837 10.2743C13.8218 10.0899 13.4146 9.99001 12.9992 9.99001Z" fill="#272B32"/>
</svg>
