<svg width="26" height="26" viewBox="0 0 26 26" fill="none" xmlns="http://www.w3.org/2000/svg">
<path fill-rule="evenodd" clip-rule="evenodd" d="M13.0032 4.33388C17.4838 4.33713 21.5073 7.47771 23.7672 12.7362C23.856 12.941 23.856 13.1728 23.7672 13.3775C21.5084 18.6371 17.4838 21.7777 13.0032 21.781H12.9967C8.51602 21.7777 4.49252 18.6371 2.23268 13.3775C2.14493 13.1728 2.14493 12.941 2.23268 12.7362C4.49252 7.47771 8.5171 4.33713 12.9967 4.33388H13.0032ZM12.9999 5.95888C9.2776 5.95996 5.88243 8.60654 3.86743 13.0569C5.88243 17.5083 9.27652 20.1549 12.9999 20.156C16.7233 20.1549 20.1174 17.5083 22.1324 13.0569C20.1174 8.60654 16.7233 5.95996 12.9999 5.95888ZM12.9996 8.81974C15.3364 8.81974 17.2376 10.721 17.2376 13.0577C17.2376 15.3934 15.3364 17.2936 12.9996 17.2936C10.6629 17.2936 8.76269 15.3934 8.76269 13.0577C8.76269 10.721 10.6629 8.81974 12.9996 8.81974ZM12.9996 10.4447C11.5588 10.4447 10.3877 11.6169 10.3877 13.0577C10.3877 14.4975 11.5588 15.6686 12.9996 15.6686C14.4404 15.6686 15.6126 14.4975 15.6126 13.0577C15.6126 11.6169 14.4404 10.4447 12.9996 10.4447Z" fill="#272B32"/>
</svg>
